<svg xmlns="http://www.w3.org/2000/svg" viewBox="0 0 930 202">
  <path fill="#373737" d="M195.328 99.26c0-26.72 20.74-46.93 48.16-46.93 23.9 0 42.53 15.29 46.05 36.56h-24.26c-2.99-8.61-11.42-14.41-21.79-14.41-14.06 0-24.61 10.72-24.61 24.78s10.55 24.78 24.61 24.78c10.37 0 18.81-5.8 21.79-14.41h24.26c-3.52 21.27-22.15 36.56-46.05 36.56-27.42 0-48.16-20.21-48.16-46.93zm100.53 0c0-26.72 20.74-46.93 48.16-46.93s48.16 20.21 48.16 46.93-20.74 46.93-48.16 46.93-48.16-20.21-48.16-46.93zm72.76 0c0-14.06-10.37-24.78-24.61-24.78s-24.61 10.72-24.61 24.78 10.55 24.78 24.61 24.78 24.61-10.72 24.61-24.78zm40.43 16.52V75.35h-14.24V54.43h8.08c4.74 0 7.38-2.46 7.38-7.21V26.95l21.62-10.49v37.97h20.74v20.92h-20.74v36.56c0 7.03 4.39 11.25 11.78 11.25h8.96v20.92h-12.3c-20.57 0-31.29-9.84-31.29-28.3h.01zm56.24-61.34h22.85v13.53c7.03-9.32 16.7-14.94 28.47-14.94h3.34v23.55h-3.34c-18.28 0-28.47 9.67-28.47 24.78v42.71h-22.85V54.43v.01zm55.53 44.82c0-26.72 18.81-46.93 43.77-46.93 11.95 0 21.97 4.75 29.18 12.66V54.44h22.85v89.64h-22.85v-10.55c-7.21 7.91-17.22 12.66-29.18 12.66-24.96 0-43.77-20.21-43.77-46.93zm72.95 0c0-14.06-10.55-24.78-24.78-24.78s-24.61 10.72-24.61 24.78 10.55 24.78 24.61 24.78 24.78-10.72 24.78-24.78zm34.62 17.93h23.02c0 6.15 5.98 10.19 14.24 10.19 7.56 0 12.83-3.51 12.83-8.26 0-14.59-48.69-6.15-48.69-38.32 0-18.1 15.12-28.47 34.8-28.47 20.92 0 35.33 11.6 35.33 27.6h-22.85c0-5.27-5.1-8.96-12.66-8.96-7.03 0-11.78 3.16-11.78 7.73 0 14.24 48.86 5.98 48.86 38.14 0 17.58-14.41 29.35-35.86 29.35s-37.26-12.13-37.26-29h.02zm79.44-17.93c0-26.72 20.74-46.93 48.16-46.93s48.16 20.21 48.16 46.93-20.74 46.93-48.16 46.93-48.16-20.21-48.16-46.93zm72.76 0c0-14.06-10.37-24.78-24.61-24.78s-24.61 10.72-24.61 24.78 10.55 24.78 24.61 24.78 24.61-10.72 24.61-24.78zm41.66-23.91h-14.06V54.43h14.06v-7.21c0-20.04 11.78-30.76 33.75-30.76h11.07v20.92h-8.79c-8.26 0-13.18 4.57-13.18 12.48v4.57h20.74v20.92h-20.74v68.72h-22.85V75.35zm63.97 40.43V75.35h-14.24V54.43h8.08c4.74 0 7.38-2.46 7.38-7.21V26.95l21.62-10.49v37.97h20.74v20.92h-20.74v36.56c0 7.03 4.39 11.25 11.78 11.25h8.96v20.92h-12.3c-20.57 0-31.29-9.84-31.29-28.3h.01z" class="cls-5"/>
  <path fill="#f33" d="M181.508 59.02c-.53-3.13-1.59-5.97-3.04-8.51-1.47-2.53-3.4-4.87-5.85-6.89-25.94-21.45-52.93 4.91-54.24 32.77-.15 3.11.74 5.38 2.04 7.63 1.31 2.28 2.82 4.15 5.59 5.58 24.78 12.8 61.1 2.61 55.5-30.58z" class="cls-6"/>
  <path fill="#369" d="M172.498 158.37c2.45-2.02 4.38-4.35 5.86-6.88 1.46-2.54 2.53-5.37 3.06-8.5 5.68-33.18-30.62-43.45-55.43-30.71-2.77 1.42-4.3 3.32-5.6 5.57-1.32 2.27-2.2 4.51-2.06 7.63 1.25 27.86 28.18 54.28 54.17 32.89z" class="cls-7"/>
  <path fill="#6c3" d="M82.038 200.17a25.76 25.76 0 0 0 8.89 1.63c2.93 0 5.92-.5 8.89-1.61 31.56-11.71 22.27-48.26-1.19-63.36-2.62-1.69-5.02-2.06-7.63-2.06-2.63 0-5.01.36-7.63 2.04-23.49 15.04-32.87 51.57-1.33 63.35v.01z" class="cls-3"/>
  <path fill="#f60" d="M.578 142.79c.53 3.13 1.59 5.97 3.04 8.51 1.47 2.53 3.4 4.87 5.85 6.89 25.94 21.45 52.93-4.91 54.24-32.77.15-3.11-.74-5.38-2.04-7.63-1.31-2.28-2.82-4.15-5.59-5.58-24.78-12.8-61.1-2.61-55.5 30.58z" class="cls-2"/>
  <path fill="#09f" d="M9.588 43.44a25.655 25.655 0 0 0-5.86 6.88 25.501 25.501 0 0 0-3.06 8.5c-5.67 33.18 30.62 43.45 55.43 30.71 2.77-1.42 4.3-3.32 5.6-5.57 1.32-2.27 2.2-4.51 2.06-7.63-1.25-27.86-28.18-54.28-54.17-32.89z" class="cls-4"/>
  <path fill="#fc0" d="M100.048 1.63A25.76 25.76 0 0 0 91.158 0c-2.93 0-5.92.5-8.89 1.61-31.56 11.71-22.27 48.26 1.19 63.36 2.62 1.69 5.02 2.06 7.63 2.06 2.63 0 5.01-.36 7.63-2.04 23.49-15.04 32.87-51.57 1.33-63.35v-.01z" class="cls-1"/>
</svg>