<svg xmlns="http://www.w3.org/2000/svg" viewBox="0 0 182 202">
  <path fill="#f33" d="M181.508 59.02c-.53-3.13-1.59-5.97-3.04-8.51-1.47-2.53-3.4-4.87-5.85-6.89-25.94-21.45-52.93 4.91-54.24 32.77-.15 3.11.74 5.38 2.04 7.63 1.31 2.28 2.82 4.15 5.59 5.58 24.78 12.8 61.1 2.61 55.5-30.58z" class="cls-6"/>
  <path fill="#369" d="M172.498 158.37c2.45-2.02 4.38-4.35 5.86-6.88 1.46-2.54 2.53-5.37 3.06-8.5 5.68-33.18-30.62-43.45-55.43-30.71-2.77 1.42-4.3 3.32-5.6 5.57-1.32 2.27-2.2 4.51-2.06 7.63 1.25 27.86 28.18 54.28 54.17 32.89z" class="cls-7"/>
  <path fill="#6c3" d="M82.038 200.17a25.76 25.76 0 0 0 8.89 1.63c2.93 0 5.92-.5 8.89-1.61 31.56-11.71 22.27-48.26-1.19-63.36-2.62-1.69-5.02-2.06-7.63-2.06-2.63 0-5.01.36-7.63 2.04-23.49 15.04-32.87 51.57-1.33 63.35v.01z" class="cls-3"/>
  <path fill="#f60" d="M.578 142.79c.53 3.13 1.59 5.97 3.04 8.51 1.47 2.53 3.4 4.87 5.85 6.89 25.94 21.45 52.93-4.91 54.24-32.77.15-3.11-.74-5.38-2.04-7.63-1.31-2.28-2.82-4.15-5.59-5.58-24.78-12.8-61.1-2.61-55.5 30.58z" class="cls-2"/>
  <path fill="#09f" d="M9.588 43.44a25.655 25.655 0 0 0-5.86 6.88 25.501 25.501 0 0 0-3.06 8.5c-5.67 33.18 30.62 43.45 55.43 30.71 2.77-1.42 4.3-3.32 5.6-5.57 1.32-2.27 2.2-4.51 2.06-7.63-1.25-27.86-28.18-54.28-54.17-32.89z" class="cls-4"/>
  <path fill="#fc0" d="M100.048 1.63A25.76 25.76 0 0 0 91.158 0c-2.93 0-5.92.5-8.89 1.61-31.56 11.71-22.27 48.26 1.19 63.36 2.62 1.69 5.02 2.06 7.63 2.06 2.63 0 5.01-.36 7.63-2.04 23.49-15.04 32.87-51.57 1.33-63.35v-.01z" class="cls-1"/>
</svg>
