<?xml version="1.0" encoding="UTF-8"?>
<svg width="100" height="100" viewBox="0 0 100 100" fill="none" xmlns="http://www.w3.org/2000/svg">
  <!-- Top Petal (Yellow) -->
  <path d="M50 5C45 5 40 10 40 20C40 30 45 35 50 35C55 35 60 30 60 20C60 10 55 5 50 5Z" fill="#FBC02D"/>
  
  <!-- top Right Petal (Red) -->
  <path d="M78 22C74 18 66 18 58 25C50 32 50 38 54 42C58 46 64 46 72 39C80 32 82 26 78 22Z" fill="#F44336"/>
  
  <!-- Bottom Right Petal (Dark Blue) -->
  <path d="M78 78C82 74 80 66 72 58C64 50 58 50 54 54C50 58 50 64 57 72C64 80 74 82 78 78Z" fill="#3F51B5"/>
  
  <!-- Bottom Petal (Green) -->
  <path d="M50 95C55 95 60 90 60 80C60 70 55 65 50 65C45 65 40 70 40 80C40 90 45 95 50 95Z" fill="#66BB6A"/>
  
  <!-- Bottom Left Petal (Orange) -->
  <path d="M22 78C26 82 34 82 42 75C50 68 50 62 46 58C42 54 36 54 28 61C20 68 18 74 22 78Z" fill="#FB8C00"/>
  
  <!-- Top Left Petal (Light Blue) -->
  <path d="M22 22C18 26 18 34 25 42C32 50 38 50 42 46C46 42 46 36 39 28C32 20 26 18 22 22Z" fill="#03A9F4"/>
</svg>
